<svg width="78" height="26" viewBox="0 0 78 26" fill="none" xmlns="http://www.w3.org/2000/svg">
<path d="M0 6.71141C0 4.10937 2.10937 2 4.71141 2H53.8591C55.5938 2 57 3.40625 57 5.14094V24H4.71141C2.10937 24 0 21.8906 0 19.2886V6.71141Z" fill="black"/>
<path d="M0 11H74.8591C76.5938 11 78 12.4062 78 14.1409V24H4.71141C2.10937 24 0 21.8906 0 19.2886V11Z" fill="#FFC900"/>
<g filter="url(#filter0_d_5210_2400)">
<path d="M26.9462 2H0V23.9866H24.8188L35.5973 10.5281L26.9462 2Z" fill="black"/>
</g>
<path d="M8.27113 5.40271C7.4908 5.40271 6.85771 6.0402 6.85771 6.82595V8.24919H5.44429C5.18516 8.24919 4.97314 8.46267 4.97314 8.7236C4.97314 8.98453 5.18516 9.19801 5.44429 9.19801H12.9825C13.2417 9.19801 13.4537 9.4115 13.4537 9.67242C13.4537 9.93335 13.2417 10.1468 12.9825 10.1468H6.38657C6.12744 10.1468 5.91543 10.3603 5.91543 10.6213C5.91543 10.8822 6.12744 11.0957 6.38657 11.0957H12.0403C12.2994 11.0957 12.5114 11.3091 12.5114 11.5701C12.5114 11.831 12.2994 12.0445 12.0403 12.0445H5.44429C5.18516 12.0445 4.97314 12.258 4.97314 12.5189C4.97314 12.7798 5.18516 12.9933 5.44429 12.9933H11.098C11.3571 12.9933 11.5691 13.2068 11.5691 13.4677C11.5691 13.7287 11.3571 13.9421 11.098 13.9421H6.85771V17.7374C6.85771 19.3089 8.1239 20.5839 9.68455 20.5839C11.2452 20.5839 12.5114 19.3089 12.5114 17.7374H16.2805C16.2805 19.3089 17.5467 20.5839 19.1074 20.5839C20.668 20.5839 21.9342 19.3089 21.9342 17.7374H22.8765C23.3977 17.7374 23.8188 17.3134 23.8188 16.7886C23.8188 16.2638 23.3977 15.8398 22.8765 15.8398V12.4388C22.8765 11.9348 22.6792 11.4515 22.3259 11.0957L20.0497 8.80366C19.6963 8.44785 19.2163 8.24919 18.7157 8.24919H17.2228V6.82595C17.2228 6.0402 16.5897 5.40271 15.8094 5.40271H8.27113ZM20.9919 12.4388V12.9933H17.2228V10.1468H18.7157L20.9919 12.4388ZM9.68455 16.3142C10.0594 16.3142 10.4189 16.4642 10.684 16.7311C10.9491 16.998 11.098 17.36 11.098 17.7374C11.098 18.1149 10.9491 18.4769 10.684 18.7438C10.4189 19.0107 10.0594 19.1607 9.68455 19.1607C9.30969 19.1607 8.95018 19.0107 8.68511 18.7438C8.42004 18.4769 8.27113 18.1149 8.27113 17.7374C8.27113 17.36 8.42004 16.998 8.68511 16.7311C8.95018 16.4642 9.30969 16.3142 9.68455 16.3142ZM17.694 17.7374C17.694 17.36 17.8429 16.998 18.1079 16.7311C18.373 16.4642 18.7325 16.3142 19.1074 16.3142C19.4822 16.3142 19.8417 16.4642 20.1068 16.7311C20.3719 16.998 20.5208 17.36 20.5208 17.7374C20.5208 18.1149 20.3719 18.4769 20.1068 18.7438C19.8417 19.0107 19.4822 19.1607 19.1074 19.1607C18.7325 19.1607 18.373 19.0107 18.1079 18.7438C17.8429 18.4769 17.694 18.1149 17.694 17.7374Z" fill="white"/>
<path d="M37.5021 9V3.90909H40.7635V4.68217H38.4244V6.06428H40.5398V6.83736H38.4244V9H37.5021ZM41.6037 9V3.90909H43.5128C43.9039 3.90909 44.232 3.97704 44.4972 4.11293C44.764 4.24882 44.9653 4.43939 45.1012 4.68466C45.2388 4.92827 45.3075 5.21248 45.3075 5.53729C45.3075 5.86375 45.2379 6.14714 45.0987 6.38743C44.9612 6.62607 44.7582 6.81084 44.4897 6.94176C44.2212 7.07102 43.8915 7.13565 43.5004 7.13565H42.1406V6.37003H43.3761C43.6048 6.37003 43.792 6.33854 43.9379 6.27557C44.0837 6.21094 44.1914 6.11731 44.261 5.99467C44.3323 5.87038 44.3679 5.71792 44.3679 5.53729C44.3679 5.35665 44.3323 5.20253 44.261 5.07493C44.1897 4.94567 44.0812 4.84789 43.9354 4.7816C43.7895 4.71366 43.6014 4.67969 43.3711 4.67969H42.5259V9H41.6037ZM44.2337 6.69318L45.494 9H44.4648L43.2269 6.69318H44.2337ZM46.1564 9V3.90909H49.4675V4.68217H47.0787V6.06428H49.296V6.83736H47.0787V8.22692H49.4874V9H46.1564ZM50.4084 9V3.90909H53.7195V4.68217H51.3306V6.06428H53.5479V6.83736H51.3306V8.22692H53.7393V9H50.4084Z" fill="white"/>
<path d="M38.5013 20.8256H36.5173L37.4338 15.3051H39.38C39.9353 15.3051 40.3962 15.4183 40.7628 15.6448C41.1312 15.8712 41.3909 16.1955 41.5418 16.6178C41.6928 17.0383 41.7197 17.5406 41.6227 18.1246C41.5292 18.6889 41.3432 19.1732 41.0647 19.5775C40.7862 19.9801 40.4295 20.2892 39.9946 20.5048C39.5597 20.7186 39.0619 20.8256 38.5013 20.8256ZM37.8516 19.8255H38.5686C38.9155 19.8255 39.2192 19.7608 39.4797 19.6314C39.7421 19.5021 39.9568 19.3026 40.124 19.033C40.2929 18.7635 40.4124 18.4185 40.4825 17.998C40.549 17.599 40.5445 17.2756 40.469 17.0276C40.3953 16.7778 40.2524 16.5954 40.0404 16.4804C39.8284 16.3636 39.5498 16.3052 39.2048 16.3052H38.4366L37.8516 19.8255ZM41.9639 20.8256L42.8804 15.3051H46.6002L46.4385 16.2674H43.8858L43.6702 17.5828H46.0314L45.8697 18.5451H43.5084L43.2928 19.8633H45.8562L45.6945 20.8256H41.9639ZM46.5358 20.8256L47.4522 15.3051H48.6194L47.8647 19.8633H50.2313L50.0696 20.8256H46.5358ZM52.8503 15.3051L51.9338 20.8256H50.7666L51.6831 15.3051H52.8503ZM54.732 15.3051L55.3735 19.4994H55.4247L57.4545 15.3051H58.7483L55.9288 20.8256H54.4247L53.4354 15.3051H54.732ZM58.4204 20.8256L59.3369 15.3051H63.0567L62.895 16.2674H60.3423L60.1267 17.5828H62.4879L62.3262 18.5451H59.9649L59.7493 19.8633H62.3127L62.151 20.8256H58.4204ZM62.9922 20.8256L63.9087 15.3051H66.0867C66.5036 15.3051 66.8468 15.3788 67.1164 15.5262C67.3878 15.6735 67.5782 15.8829 67.6879 16.1542C67.7993 16.4238 67.8253 16.7418 67.766 17.1084C67.7049 17.475 67.5728 17.7895 67.3698 18.0519C67.1685 18.3142 66.9062 18.5164 66.5827 18.6584C66.261 18.7985 65.8881 18.8686 65.464 18.8686H64.0058L64.1675 17.9306H65.4344C65.6572 17.9306 65.8477 17.9 66.0058 17.8389C66.164 17.7778 66.2889 17.6862 66.3805 17.564C66.474 17.4418 66.5351 17.2899 66.5638 17.1084C66.5944 16.9233 66.5836 16.7688 66.5315 16.6448C66.4794 16.519 66.385 16.4238 66.2484 16.3591C66.1119 16.2926 65.9322 16.2593 65.7093 16.2593H64.9222L64.1594 20.8256H62.9922ZM66.3886 18.3133L67.3455 20.8256H66.0571L65.1298 18.3133H66.3886ZM68.3054 15.3051H69.6127L70.478 17.6826H70.5373L72.1842 15.3051H73.4916L70.8877 18.874L70.5615 20.8256H69.4025L69.7286 18.874L68.3054 15.3051Z" fill="black"/>
<defs>
<filter id="filter0_d_5210_2400" x="0" y="0.95" width="38.1673" height="24.0866" filterUnits="userSpaceOnUse" color-interpolation-filters="sRGB">
<feFlood flood-opacity="0" result="BackgroundImageFix"/>
<feColorMatrix in="SourceAlpha" type="matrix" values="0 0 0 0 0 0 0 0 0 0 0 0 0 0 0 0 0 0 127 0" result="hardAlpha"/>
<feOffset dx="1.52"/>
<feGaussianBlur stdDeviation="0.525"/>
<feComposite in2="hardAlpha" operator="out"/>
<feColorMatrix type="matrix" values="0 0 0 0 1 0 0 0 0 0.788235 0 0 0 0 0 0 0 0 0.49 0"/>
<feBlend mode="normal" in2="BackgroundImageFix" result="effect1_dropShadow_5210_2400"/>
<feBlend mode="normal" in="SourceGraphic" in2="effect1_dropShadow_5210_2400" result="shape"/>
</filter>
</defs>
</svg>
